<?xml version="1.0" encoding="UTF-8" standalone="no"?>
<!-- Created with Inkscape (http://www.inkscape.org/) -->

<svg
   xmlns:dc="http://purl.org/dc/elements/1.1/"
   xmlns:cc="http://creativecommons.org/ns#"
   xmlns:rdf="http://www.w3.org/1999/02/22-rdf-syntax-ns#"
   xmlns:svg="http://www.w3.org/2000/svg"
   xmlns="http://www.w3.org/2000/svg"
   xmlns:sodipodi="http://sodipodi.sourceforge.net/DTD/sodipodi-0.dtd"
   xmlns:inkscape="http://www.inkscape.org/namespaces/inkscape"
   width="43.222382"
   height="39.436405"
   id="svg3473"
   version="1.1"
   inkscape:version="0.48.2 r9819"
   sodipodi:docname="1315550849.svg">
  <defs
     id="defs3475" />
  <sodipodi:namedview
     id="base"
     pagecolor="#ffffff"
     bordercolor="#666666"
     borderopacity="1.0"
     inkscape:pageopacity="0.0"
     inkscape:pageshadow="2"
     inkscape:zoom="1.8188757"
     inkscape:cx="176.76252"
     inkscape:cy="-125.59112"
     inkscape:document-units="px"
     inkscape:current-layer="layer1"
     showgrid="false"
     fit-margin-top="0"
     fit-margin-left="0"
     fit-margin-right="0"
     fit-margin-bottom="0"
     inkscape:window-width="1280"
     inkscape:window-height="1000"
     inkscape:window-x="0"
     inkscape:window-y="24"
     inkscape:window-maximized="1" />
  <metadata
     id="metadata3478">
    <rdf:RDF>
      <cc:Work
         rdf:about="">
        <dc:format>image/svg+xml</dc:format>
        <dc:type
           rdf:resource="http://purl.org/dc/dcmitype/StillImage" />
        <dc:title />
      </cc:Work>
    </rdf:RDF>
  </metadata>
  <g
     inkscape:label="Capa 1"
     inkscape:groupmode="layer"
     id="layer1"
     transform="translate(-91.886193,-211.27133)">
    <path
       sodipodi:nodetypes="cssc"
       inkscape:connector-curvature="0"
       id="path3003"
       d="m 117.52614,244.38915 c 0,0 6.31113,1.47902 5.80318,4.12019 -0.47733,2.48195 -4.24711,2.7734 -6.28889,1.06569 -1.40593,-1.17591 0.48571,-5.18588 0.48571,-5.18588 z"
       style="fill:#ffcc00;fill-opacity:1;stroke:none" />
    <path
       style="fill:#ffcc00;fill-opacity:1;stroke:none"
       d="m 109.27094,244.44227 c 0,0 -5.96972,1.47902 -5.48925,4.12018 0.45151,2.48196 4.01736,2.77341 5.94868,1.06569 1.32988,-1.1759 -0.45943,-5.18587 -0.45943,-5.18587 z"
       id="path3001"
       inkscape:connector-curvature="0"
       sodipodi:nodetypes="cssc" />
    <path
       style="fill:#006680;stroke:none"
       d="m 113.39004,211.2715 c -11.00284,0.0693 -17.315418,19.99528 -13.556747,29.91385 1.507627,3.97843 7.644527,5.3495 13.762147,5.36076 6.11762,0.0113 11.14072,-0.78217 12.79756,-5.36076 3.49603,-9.66109 -2.341,-29.98094 -13.00296,-29.91385 z"
       id="path2985"
       inkscape:connector-curvature="0"
       sodipodi:nodetypes="sszss" />
    <path
       style="fill:#ffffff;stroke:none"
       d="m 113.54833,213.54876 c -8.84422,0.0647 -13.08077,19.11875 -10.92169,27.22163 0.67944,2.54992 6.59519,5.21937 10.76811,5.29797 4.17292,0.0786 9.11854,-1.33508 10.33922,-5.29797 2.57959,-8.37448 -0.95381,-27.28914 -10.18564,-27.22163 z"
       id="path2987"
       inkscape:connector-curvature="0"
       sodipodi:nodetypes="sszss" />
    <path
       style="fill:#ffcc00;stroke:none"
       d="m 109.14196,223.94704 9.80213,-0.76803 c 0,0 0.13938,4.99819 -1.79706,5.68342 -2.97248,1.05184 -8.00507,-4.91539 -8.00507,-4.91539 z"
       id="path2993"
       inkscape:connector-curvature="0"
       sodipodi:nodetypes="ccsc" />
    <path
       sodipodi:type="arc"
       style="fill:#000000;stroke:none"
       id="path2995"
       sodipodi:cx="327.3779"
       sodipodi:cy="341.12744"
       sodipodi:rx="17.493477"
       sodipodi:ry="17.493477"
       d="m 344.87138,341.12744 c 0,9.66138 -7.8321,17.49348 -17.49348,17.49348 -9.66138,0 -17.49348,-7.8321 -17.49348,-17.49348 0,-9.66138 7.8321,-17.49348 17.49348,-17.49348 9.66138,0 17.49348,7.8321 17.49348,17.49348 z"
       transform="matrix(0.05539989,0,0,0.05313588,92.971225,201.20199)" />
    <path
       d="m 344.87138,341.12744 c 0,9.66138 -7.8321,17.49348 -17.49348,17.49348 -9.66138,0 -17.49348,-7.8321 -17.49348,-17.49348 0,-9.66138 7.8321,-17.49348 17.49348,-17.49348 9.66138,0 17.49348,7.8321 17.49348,17.49348 z"
       sodipodi:ry="17.493477"
       sodipodi:rx="17.493477"
       sodipodi:cy="341.12744"
       sodipodi:cx="327.3779"
       id="path2997"
       style="fill:#000000;stroke:none"
       sodipodi:type="arc"
       transform="matrix(0.05539989,0,0,0.05313588,92.971225,201.20199)" />
    <path
       sodipodi:type="arc"
       style="fill:#000000;stroke:none"
       id="path2999"
       sodipodi:cx="327.3779"
       sodipodi:cy="341.12744"
       sodipodi:rx="17.493477"
       sodipodi:ry="17.493477"
       d="m 344.87138,341.12744 c 0,9.66138 -7.8321,17.49348 -17.49348,17.49348 -9.66138,0 -17.49348,-7.8321 -17.49348,-17.49348 0,-9.66138 7.8321,-17.49348 17.49348,-17.49348 9.66138,0 17.49348,7.8321 17.49348,17.49348 z"
       transform="matrix(0.05539989,0,0,0.05313588,97.514018,201.20199)" />
    <path
       style="fill:#006680;fill-opacity:1;stroke:none"
       d="m 102.39904,221.8543 c 0,0 -11.940409,16.21993 -10.370592,17.78365 2.781956,2.77114 9.113552,-7.53545 9.113552,-7.53545 z"
       id="path3005"
       inkscape:connector-curvature="0"
       sodipodi:nodetypes="cscc" />
    <path
       sodipodi:nodetypes="cscc"
       inkscape:connector-curvature="0"
       id="path3007"
       d="m 124.59573,223.05997 c 0,0 11.94041,16.21993 10.37059,17.78365 -2.78195,2.77114 -9.11355,-7.53545 -9.11355,-7.53545 z"
       style="fill:#006680;fill-opacity:1;stroke:none" />
  </g>
</svg>
